<mxfile host="app.diagrams.net" modified="2021-02-22T13:21:40.215Z" agent="5.0 (Windows NT 10.0; Win64; x64) AppleWebKit/537.36 (KHTML, like Gecko) Chrome/88.0.4324.182 Safari/537.36" etag="3PzZQlm_exgKHzyxN0-a" version="14.4.2" type="github">
  <diagram id="jx2Npio2lGBoBv-Xj-zc" name="Page-1">
    <mxGraphModel dx="813" dy="435" grid="1" gridSize="10" guides="1" tooltips="1" connect="1" arrows="1" fold="1" page="1" pageScale="1" pageWidth="827" pageHeight="1169" math="0" shadow="0">
      <root>
        <mxCell id="0" />
        <mxCell id="1" parent="0" />
        <mxCell id="OxyCzIeUV1UeRwzUBiVp-3" style="edgeStyle=orthogonalEdgeStyle;rounded=0;orthogonalLoop=1;jettySize=auto;html=1;exitX=0.5;exitY=1;exitDx=0;exitDy=0;" edge="1" parent="1" source="OxyCzIeUV1UeRwzUBiVp-1" target="OxyCzIeUV1UeRwzUBiVp-2">
          <mxGeometry relative="1" as="geometry" />
        </mxCell>
        <mxCell id="OxyCzIeUV1UeRwzUBiVp-1" value="Start" style="rounded=1;whiteSpace=wrap;html=1;" vertex="1" parent="1">
          <mxGeometry x="70" y="40" width="80" height="20" as="geometry" />
        </mxCell>
        <mxCell id="OxyCzIeUV1UeRwzUBiVp-5" value="x &amp;gt;= 18 &amp;amp;&amp;amp; x &amp;lt;= 50" style="edgeStyle=orthogonalEdgeStyle;rounded=0;orthogonalLoop=1;jettySize=auto;html=1;exitX=1;exitY=0.5;exitDx=0;exitDy=0;" edge="1" parent="1" source="OxyCzIeUV1UeRwzUBiVp-2" target="OxyCzIeUV1UeRwzUBiVp-4">
          <mxGeometry relative="1" as="geometry" />
        </mxCell>
        <mxCell id="OxyCzIeUV1UeRwzUBiVp-7" value="x &amp;lt; 18 || x &amp;gt; 50" style="edgeStyle=orthogonalEdgeStyle;rounded=0;orthogonalLoop=1;jettySize=auto;html=1;exitX=0.5;exitY=1;exitDx=0;exitDy=0;" edge="1" parent="1" source="OxyCzIeUV1UeRwzUBiVp-2" target="OxyCzIeUV1UeRwzUBiVp-6">
          <mxGeometry relative="1" as="geometry" />
        </mxCell>
        <mxCell id="OxyCzIeUV1UeRwzUBiVp-2" value="if" style="rhombus;whiteSpace=wrap;html=1;" vertex="1" parent="1">
          <mxGeometry x="80" y="110" width="60" height="60" as="geometry" />
        </mxCell>
        <mxCell id="OxyCzIeUV1UeRwzUBiVp-9" style="edgeStyle=orthogonalEdgeStyle;rounded=0;orthogonalLoop=1;jettySize=auto;html=1;exitX=0.5;exitY=1;exitDx=0;exitDy=0;" edge="1" parent="1" source="OxyCzIeUV1UeRwzUBiVp-4" target="OxyCzIeUV1UeRwzUBiVp-8">
          <mxGeometry relative="1" as="geometry" />
        </mxCell>
        <mxCell id="OxyCzIeUV1UeRwzUBiVp-4" value="OK" style="rounded=0;whiteSpace=wrap;html=1;" vertex="1" parent="1">
          <mxGeometry x="290" y="120" width="116" height="40" as="geometry" />
        </mxCell>
        <mxCell id="OxyCzIeUV1UeRwzUBiVp-10" style="edgeStyle=orthogonalEdgeStyle;rounded=0;orthogonalLoop=1;jettySize=auto;html=1;exitX=1;exitY=0.5;exitDx=0;exitDy=0;entryX=0;entryY=0.5;entryDx=0;entryDy=0;" edge="1" parent="1" source="OxyCzIeUV1UeRwzUBiVp-6" target="OxyCzIeUV1UeRwzUBiVp-8">
          <mxGeometry relative="1" as="geometry" />
        </mxCell>
        <mxCell id="OxyCzIeUV1UeRwzUBiVp-6" value="No" style="rounded=0;whiteSpace=wrap;html=1;" vertex="1" parent="1">
          <mxGeometry x="50" y="270" width="120" height="60" as="geometry" />
        </mxCell>
        <mxCell id="OxyCzIeUV1UeRwzUBiVp-8" value="END" style="rounded=1;whiteSpace=wrap;html=1;" vertex="1" parent="1">
          <mxGeometry x="294" y="270" width="120" height="60" as="geometry" />
        </mxCell>
      </root>
    </mxGraphModel>
  </diagram>
</mxfile>
